# xmcd
#
# Track frame offsets:
#	150
#	19650
#	35562
#	49950
#	72300
#	86462
#	106625
#	123150
#	144037
#	157087
#	171025
#	189400
#	209100
#
# Disc length: 3003 seconds
#
# Revision: 1
# Processed by: cddbd v1.5.1PL2 Copyright (c) Steve Scherf et al.
# Submitted via: audiograbber 1.83.01
#
DISCID=ac0bb90d
DTITLE=Peter Hofmann - Best Of Peter Hofmann [CD 1)
DYEAR=1997
DGENRE=Pop
TTITLE0=Scarborough Fair
TTITLE1=In the Ghetto
TTITLE2=Young Girl
TTITLE3=Sailing
TTITLE4=Love me Tender
TTITLE5=He Ain´t Heavy, He´s my Brother
TTITLE6=The Sun Ain´t Gonna Shine Anymore
TTITLE7=You´ve Lost That Lovin Feeling
TTITLE8=What a Wonderful World
TTITLE9=Are You Lonesome Tonight
TTITLE10=Bridge over Troubled Water
TTITLE11=Let It Be
TTITLE12=Only You
EXTD=
EXTT0=
EXTT1=
EXTT2=
EXTT3=
EXTT4=
EXTT5=
EXTT6=
EXTT7=
EXTT8=
EXTT9=
EXTT10=
EXTT11=
EXTT12=
PLAYORDER=
